Coordinates
version=1
nRows=18
nColumns=28
inDegrees=yes

Units are S.I. units (second, meters, Newtons, ...)
Angles are in degrees.

endheader
time	pelvis_tilt	pelvis_list	pelvis_rotation	pelvis_tx	pelvis_ty	pelvis_tz	hip_flexion_r	hip_adduction_r	hip_rotation_r	knee_angle_r	ankle_angle_r	subtalar_angle_r	mtp_angle_r	hip_flexion_l	hip_adduction_l	hip_rotation_l	knee_angle_l	socket_flexion	socket_adduction	socket_rotation	socket_tx	socket_ty	socket_tz	foot_flex	lumbar_extension	lumbar_bending	lumbar_rotation
      0.00000000	     -0.90491767	     -1.82419907	     -8.62966375	     -0.78902272	      0.96558368	      0.29957921	    -22.91804764	      1.22417132	     10.01355734	     -6.66392004	     -5.57768666	    -21.63392084	     17.83084619	     23.87851554	     -4.64475860	      0.34257436	     -0.80376988	      0.00000000	      0.00000000	      0.00000000	      0.00000000	     -0.00139736	      0.00000000	     -0.99576607	     -7.63894864	      1.39019176	      5.16208095
      0.00416667	     -0.87185243	     -1.79300979	     -8.71925185	     -0.78291838	      0.96444474	      0.29919779	    -23.17813216	      1.09035756	     10.03871038	     -6.83913403	     -5.64539028	    -21.61540413	     17.83599374	     23.90410226	     -4.62799015	      0.29707335	     -1.39249954	      0.00000000	      0.00000000	      0.00000000	      0.00000000	     -0.00182896	      0.00000000	     -1.33772197	     -7.51840968	      1.35384610	      5.17506000
      0.00833333	     -0.84694217	     -1.55529620	     -8.76624312	     -0.77649927	      0.96334086	      0.29882230	    -23.36585244	      0.76745271	      9.82902594	     -7.08833577	     -6.13766048	    -21.56919683	     18.05473718	     23.93997950	     -4.37008870	     -0.02146244	     -1.93511107	      0.00000000	      0.00000000	      0.00000000	      0.00000000	     -0.00201436	      0.00000000	     -1.98129836	     -7.51417060	      0.99362304	      5.37999526
      0.01250000	     -0.81004596	     -1.51879591	     -8.80683730	     -0.77003225	      0.96215655	      0.29833269	    -23.58591021	      0.65331609	      9.81512663	     -7.38368786	     -6.25512471	    -21.54666194	     18.09328176	     24.00160775	     -4.31787749	     -0.13733411	     -2.59518269	      0.00000000	      0.00000000	      0.00000000	      0.00000000	     -0.00250042	      0.00000000	     -2.48860050	     -7.45929561	      0.92856068	      5.40601538
      0.01666667	     -0.67481151	     -1.24294767	     -8.90333349	     -0.76317872	      0.96109423	      0.29799841	    -23.80997702	      0.21325388	      9.27466441	     -7.74260694	     -6.89686304	    -21.51202102	     21.04650461	     23.87572675	     -4.03683082	     -0.40534179	     -3.11428318	      0.00000000	      0.00000000	      0.00000000	      0.00000000	     -0.00280983	      0.00000000	     -3.11931219	     -7.51918353	      0.53096524	      5.64304739
      0.02083333	     -0.66569730	     -1.18110594	     -8.93335091	     -0.75641858	      0.95990022	      0.29742597	    -23.94377254	      0.07613450	      9.19063470	     -8.12806022	     -7.11838952	    -21.47533421	     21.05946841	     23.96974092	     -3.95149889	     -0.52934037	     -3.79871729	      0.00000000	      0.00000000	      0.00000000	      0.00000000	     -0.00332987	      0.00000000	     -3.74104003	     -7.48115592	      0.43476327	      5.66015586
      0.02500000	     -0.61711588	     -1.12988180	     -8.98689721	     -0.74941280	      0.95873101	      0.29693662	    -24.17685589	     -0.06457685	      9.19453320	     -8.44304289	     -7.25765211	    -21.45118772	     21.07105075	     23.98748062	     -3.89225444	     -0.58543240	     -4.46905229	      0.00000000	      0.00000000	      0.00000000	      0.00000000	     -0.00394229	      0.00000000	     -4.17842340	     -7.34041910	      0.38456575	      5.67419732
      0.02916667	     -0.65832436	     -0.92975654	     -8.99678689	     -0.74250919	      0.95756440	      0.29638834	    -24.08658745	     -0.32250049	      8.81425480	     -9.08743912	     -7.90512502	    -21.39914746	     21.17518663	     24.13647485	     -3.66724217	     -0.79490577	     -5.13508642	      0.00000000	      0.00000000	      0.00000000	      0.00000000	     -0.00427808	      0.00000000	     -4.95623382	     -7.33075701	      0.07104570	      5.74819582
      0.03333333	     -0.82986420	     -0.66745237	     -8.90337181	     -0.73517717	      0.95611611	      0.29564258	    -23.89357179	     -0.64110783	      8.06786710	     -9.64075384	     -8.59316366	    -21.22964421	     24.51322637	     24.44665721	     -3.34975932	     -0.88998269	     -5.85884359	      0.00000000	      0.00000000	      0.00000000	      0.00000000	     -0.00466766	      0.00000000	     -5.53804960	     -6.96938549	     -0.23994885	      5.70692909
      0.03750000	     -0.79784795	     -0.55914209	     -8.89304567	     -0.72816379	      0.95512516	      0.29501751	    -23.96746213	     -0.80035855	      7.99635908	    -10.15543359	     -8.95566865	    -21.18376947	     24.52183118	     24.52035789	     -3.19669209	     -1.00448371	     -6.58232720	      0.00000000	      0.00000000	      0.00000000	      0.00000000	     -0.00520527	      0.00000000	     -6.15433960	     -7.01082734	     -0.40580107	      5.73324136
      0.04166667	     -0.82300562	     -0.31860193	     -8.85804190	     -0.72093123	      0.95408463	      0.29434560	    -23.87011202	     -1.10653892	      7.55165819	    -10.81826994	     -9.70369692	    -21.13954668	     24.67388384	     24.63695982	     -2.90277740	     -1.15377612	     -7.28114069	      0.00000000	      0.00000000	      0.00000000	      0.00000000	     -0.00561489	      0.00000000	     -6.66724185	     -6.82088913	     -0.71823013	      5.76879170
      0.04583333	     -0.87413172	     -0.12653809	     -8.78016635	     -0.71372050	      0.95308913	      0.29359492	    -23.75940631	     -1.32707156	      7.25123234	    -11.47542627	    -10.33808061	    -21.08627272	     24.94495258	     24.80092950	     -2.64190835	     -1.23405312	     -8.01427084	      0.00000000	      0.00000000	      0.00000000	      0.00000000	     -0.00607276	      0.00000000	     -7.18854646	     -6.70058583	     -0.97816871	      5.73863874
      0.05000000	     -1.13057273	      0.04429931	     -8.57990355	     -0.70660488	      0.95179920	      0.29260123	    -23.34378220	     -1.47571795	      6.70987443	    -12.25299763	    -11.09795706	    -21.05059320	     27.08144631	     25.26896773	     -2.37549006	     -1.12911435	     -8.87212700	      0.00000000	      0.00000000	      0.00000000	      0.00000000	     -0.00649992	      0.00000000	     -7.63990108	     -6.31535143	     -1.17094199	      5.41859945
      0.05416667	     -1.07055493	      0.18789578	     -8.52045134	     -0.69960401	      0.95115920	      0.29186228	    -23.29370665	     -1.64997689	      6.63948397	    -12.96687480	    -11.65656147	    -20.95446213	     27.10661789	     25.31481453	     -2.15283131	     -1.21210099	     -9.62655250	      0.00000000	      0.00000000	      0.00000000	      0.00000000	     -0.00698945	      0.00000000	     -8.10521136	     -6.42166247	     -1.40638563	      5.45290006
      0.05833333	     -1.05134355	      0.41732523	     -8.46590916	     -0.69255407	      0.95056078	      0.29109061	    -23.05810430	     -1.94222753	      6.26060241	    -13.87832278	    -12.56971297	    -20.84676745	     27.16838174	     25.38945938	     -1.84684411	     -1.30942680	    -10.37023218	      0.00000000	      0.00000000	      0.00000000	      0.00000000	     -0.00734943	      0.00000000	     -8.41277024	     -6.38011632	     -1.71478688	      5.46129982
      0.06250000	     -1.35875120	      0.71178505	     -8.19820187	     -0.68522789	      0.94943906	      0.29002219	    -22.50028286	     -2.21316554	      5.57123567	    -14.74754108	    -13.64503285	    -20.75259913	     29.35182186	     25.88563344	     -1.42673240	     -1.25221077	    -11.20758156	      0.00000000	      0.00000000	      0.00000000	      0.00000000	     -0.00763368	      0.00000000	     -8.69128201	     -5.84280182	     -2.03408756	      5.19624470
      0.06666667	     -1.30292705	      0.91593385	     -8.09165081	     -0.67828879	      0.94907410	      0.28920000	    -22.26277975	     -2.44528259	      5.37351223	    -15.71464142	    -14.48453394	    -20.62482331	     29.35794802	     25.93614505	     -1.11726557	     -1.29466901	    -11.99110110	      0.00000000	      0.00000000	      0.00000000	      0.00000000	     -0.00797214	      0.00000000	     -8.87639531	     -5.91607064	     -2.32624334	      5.17467639
      0.07083333	     -1.27980142	      1.12404840	     -7.95801860	     -0.67138291	      0.94875450	      0.28830041	    -21.97708886	     -2.66316867	      5.22716066	    -16.68126214	    -15.36560135	    -20.46941433	     29.36296554	     26.03339499	     -0.78993016	     -1.29932698	    -12.78798549	      0.00000000	      0.00000000	      0.00000000	      0.00000000	     -0.00823651	      0.00000000	     -9.03700311	     -5.99965162	     -2.65962213	      5.13786542
